# xmcd CD database file
#
# Track frame offsets:
#	150
#	13864
#	29001
#	45446
#	62992
#	80483
#	104783
#	123753
#	137805
#	150090
#
# Disc length: 2322 seconds
#
# Revision: 4
# Processed by: cddbd v1.5.2PL0 Copyright (c) Steve Scherf et al.
# Submitted via: CDex 1.78
#
DISCID=8009100a
DTITLE=Status Quo - On The Level (Deluxe Edition) CD1
DYEAR=2016
DGENRE=Rock
TTITLE0=Little Lady
TTITLE1=Most Of The Time
TTITLE2=I Saw The Light
TTITLE3=Over And Done
TTITLE4=Nightride
TTITLE5=Down Down
TTITLE6=Broken Man
TTITLE7=What To Do
TTITLE8=Where I Am
TTITLE9=Bye Bye Johnny
EXTD=YEAR: 2016
EXTT0=
EXTT1=
EXTT2=
EXTT3=
EXTT4=
EXTT5=
EXTT6=
EXTT7=
EXTT8=
EXTT9=
PLAYORDER=
